<svg viewBox="0 0 535 63" fill="none" xmlns="http://www.w3.org/2000/svg">
<path d="M0.432 55V0.0239983H22.448V10.648H11.632V21.336H22V31.704H11.632V44.312H23.152V55H0.432ZM26.935 8.152H37.879V13.592C38.391 11.5867 39.2657 10.0933 40.503 9.112C41.7403 8.13067 43.4897 7.64 45.751 7.64C47.5857 7.64 49.1643 8.06667 50.487 8.92C51.8523 9.73066 52.8123 10.8613 53.367 12.312C54.3057 10.6907 55.351 9.51733 56.503 8.792C57.655 8.024 59.255 7.64 61.303 7.64C64.9723 7.64 67.511 8.77067 68.919 11.032C70.3697 13.2507 71.095 16.4933 71.095 20.76L70.967 55H59.703V20.568C59.703 17.5387 58.935 16.024 57.399 16.024C56.3323 16.024 55.5643 16.5573 55.095 17.624C54.6257 18.648 54.391 19.8853 54.391 21.336V55H43.191V20.568C43.191 19.2453 43.0417 18.1787 42.743 17.368C42.487 16.5573 41.911 16.152 41.015 16.152C39.863 16.152 39.0523 16.728 38.583 17.88C38.1137 18.9893 37.879 20.3333 37.879 21.912V55H26.935V8.152ZM88.875 55.512C84.0537 55.512 80.5977 54.1893 78.507 51.544C76.4163 48.8987 75.371 44.952 75.371 39.704V20.888C75.371 16.5787 76.6083 13.2933 79.083 11.032C81.5577 8.77067 85.0137 7.64 89.451 7.64C98.4537 7.64 102.955 12.056 102.955 20.888V24.28C102.955 27.6933 102.912 30.4667 102.827 32.6H86.571V41.688C86.571 43.3093 86.7417 44.5893 87.083 45.528C87.4243 46.424 88.1497 46.872 89.259 46.872C90.1123 46.872 90.7097 46.616 91.051 46.104C91.435 45.592 91.6483 45.016 91.691 44.376C91.7763 43.6933 91.819 42.712 91.819 41.432V36.888H102.955V39.576C102.955 45.0373 101.888 49.0693 99.755 51.672C97.6643 54.232 94.0377 55.512 88.875 55.512ZM91.819 27.032V21.016C91.819 17.6453 90.987 15.96 89.323 15.96C87.4457 15.96 86.507 17.6453 86.507 21.016V27.032H91.819ZM107.325 8.152H118.525V13.336C119.08 11.5013 120.04 10.0933 121.405 9.112C122.813 8.088 124.541 7.576 126.589 7.576V16.92C125.01 16.92 123.261 17.1547 121.341 17.624C119.464 18.0507 118.525 18.5627 118.525 19.16V55H107.325V8.152ZM142.253 61.848C138.925 61.848 136.301 61.5707 134.381 61.016C132.504 60.504 130.648 59.5013 128.813 58.008L132.653 51.544C135.384 53.1653 138.093 53.976 140.781 53.976C142.53 53.976 143.853 53.4213 144.749 52.312C145.645 51.2027 146.093 49.688 146.093 47.768V45.208C145.197 48.408 142.829 50.008 138.989 50.008C135.789 50.008 133.421 48.92 131.885 46.744C130.392 44.568 129.645 41.6667 129.645 38.04V20.44C129.645 16.3013 130.328 13.144 131.693 10.968C133.101 8.74933 135.533 7.64 138.989 7.64C140.994 7.64 142.573 8.152 143.725 9.176C144.92 10.1573 145.709 11.5653 146.093 13.4V8.152H157.549V47.064C157.549 52.312 156.333 56.088 153.901 58.392C151.469 60.696 147.586 61.848 142.253 61.848ZM143.469 41.56C145.218 41.56 146.093 39.9813 146.093 36.824V20.12C146.093 19.1813 145.837 18.2853 145.325 17.432C144.813 16.5787 144.173 16.152 143.405 16.152C142.424 16.152 141.762 16.5147 141.421 17.24C141.08 17.9227 140.909 18.8827 140.909 20.12V36.824C140.909 38.232 141.08 39.384 141.421 40.28C141.762 41.1333 142.445 41.56 143.469 41.56ZM175.335 55.512C170.514 55.512 167.058 54.1893 164.967 51.544C162.876 48.8987 161.831 44.952 161.831 39.704V20.888C161.831 16.5787 163.068 13.2933 165.543 11.032C168.018 8.77067 171.474 7.64 175.911 7.64C184.914 7.64 189.415 12.056 189.415 20.888V24.28C189.415 27.6933 189.372 30.4667 189.287 32.6H173.031V41.688C173.031 43.3093 173.202 44.5893 173.543 45.528C173.884 46.424 174.61 46.872 175.719 46.872C176.572 46.872 177.17 46.616 177.511 46.104C177.895 45.592 178.108 45.016 178.151 44.376C178.236 43.6933 178.279 42.712 178.279 41.432V36.888H189.415V39.576C189.415 45.0373 188.348 49.0693 186.215 51.672C184.124 54.232 180.498 55.512 175.335 55.512ZM178.279 27.032V21.016C178.279 17.6453 177.447 15.96 175.783 15.96C173.906 15.96 172.967 17.6453 172.967 21.016V27.032H178.279ZM193.785 8.152H204.985V14.104C205.454 12.184 206.265 10.6267 207.417 9.432C208.569 8.23733 210.105 7.64 212.025 7.64C215.182 7.64 217.508 8.62133 219.001 10.584C220.537 12.504 221.305 15.256 221.305 18.84V55H210.297V19.992C210.297 18.968 210.084 18.0933 209.657 17.368C209.273 16.6427 208.654 16.28 207.801 16.28C206.649 16.28 205.881 16.8133 205.497 17.88C205.156 18.904 204.985 20.2907 204.985 22.04V55H193.785V8.152ZM240.123 55.512C235.003 55.512 231.312 54.2107 229.051 51.608C226.789 49.0053 225.659 45.016 225.659 39.64V25.176C225.659 21.1227 226.085 17.8373 226.939 15.32C227.835 12.76 229.307 10.84 231.355 9.56C233.445 8.28 236.325 7.64 239.995 7.64C244.005 7.64 247.269 8.68533 249.787 10.776C252.304 12.8667 253.563 15.7893 253.563 19.544V26.712H242.171V20.12C242.171 18.8827 242 17.944 241.659 17.304C241.317 16.6213 240.656 16.28 239.675 16.28C237.84 16.28 236.923 17.5813 236.923 20.184V42.904C236.923 43.9707 237.136 44.888 237.563 45.656C238.032 46.3813 238.715 46.744 239.611 46.744C240.507 46.744 241.168 46.3813 241.595 45.656C242.064 44.9307 242.277 43.992 242.235 42.84L242.171 34.968H253.563V43.16C253.563 47 252.304 50.0293 249.787 52.248C247.312 54.424 244.091 55.512 240.123 55.512ZM256.904 55.704H262.28C263.048 55.704 263.432 55.384 263.432 54.744C263.432 54.4453 263.411 54.2107 263.368 54.04L256.072 8.152H266.76L268.872 31L269.896 42.648L271.112 31L273.608 8.152H284.36L275.656 57.432C275.357 59.2667 274.739 60.6107 273.8 61.464C272.904 62.36 271.475 62.808 269.512 62.808H256.904V55.704Z" fill="#FF1212"/>
<path d="M304.965 55V0.0239983H321.733L326.341 33.56L330.949 0.0239983H347.845V55H337.797V15.384L331.461 55H321.605L314.885 15.384V55H304.965ZM361.994 55.512C358.368 55.512 355.872 54.3173 354.506 51.928C353.184 49.496 352.522 46.04 352.522 41.56C352.522 37.8907 352.992 35.0747 353.93 33.112C354.912 31.1493 356.256 29.72 357.962 28.824C359.669 27.8853 362.272 26.8613 365.77 25.752L368.842 24.728V24.6V19.928C368.842 18.6907 368.586 17.752 368.074 17.112C367.605 16.4293 367.029 16.088 366.346 16.088C365.749 16.088 365.216 16.3653 364.746 16.92C364.32 17.4747 364.106 18.2213 364.106 19.16V21.976H353.226V20.44C353.226 15.832 354.293 12.5467 356.426 10.584C358.602 8.62133 362.122 7.64 366.986 7.64C370.869 7.64 374.026 8.664 376.458 10.712C378.89 12.7173 380.106 15.576 380.106 19.288V55H368.97V49.432C368.416 51.352 367.52 52.8453 366.282 53.912C365.088 54.9787 363.658 55.512 361.994 55.512ZM366.41 46.808C367.264 46.808 367.861 46.4667 368.202 45.784C368.586 45.0587 368.778 44.184 368.778 43.16V30.104C367.114 30.744 365.877 31.5547 365.066 32.536C364.298 33.5173 363.914 34.8827 363.914 36.632V42.648C363.914 45.4213 364.746 46.808 366.41 46.808ZM385.38 8.152H396.58V14.104C397.049 12.184 397.86 10.6267 399.012 9.432C400.164 8.23733 401.7 7.64 403.62 7.64C406.777 7.64 409.103 8.62133 410.596 10.584C412.132 12.504 412.9 15.256 412.9 18.84V55H401.892V19.992C401.892 18.968 401.679 18.0933 401.252 17.368C400.868 16.6427 400.249 16.28 399.396 16.28C398.244 16.28 397.476 16.8133 397.092 17.88C396.751 18.904 396.58 20.2907 396.58 22.04V55H385.38V8.152ZM426.79 55.512C423.163 55.512 420.667 54.3173 419.302 51.928C417.979 49.496 417.318 46.04 417.318 41.56C417.318 37.8907 417.787 35.0747 418.726 33.112C419.707 31.1493 421.051 29.72 422.758 28.824C424.464 27.8853 427.067 26.8613 430.566 25.752L433.638 24.728V24.6V19.928C433.638 18.6907 433.382 17.752 432.87 17.112C432.4 16.4293 431.824 16.088 431.142 16.088C430.544 16.088 430.011 16.3653 429.542 16.92C429.115 17.4747 428.902 18.2213 428.902 19.16V21.976H418.022V20.44C418.022 15.832 419.088 12.5467 421.222 10.584C423.398 8.62133 426.918 7.64 431.782 7.64C435.664 7.64 438.822 8.664 441.254 10.712C443.686 12.7173 444.902 15.576 444.902 19.288V55H433.766V49.432C433.211 51.352 432.315 52.8453 431.078 53.912C429.883 54.9787 428.454 55.512 426.79 55.512ZM431.206 46.808C432.059 46.808 432.656 46.4667 432.998 45.784C433.382 45.0587 433.574 44.184 433.574 43.16V30.104C431.91 30.744 430.672 31.5547 429.862 32.536C429.094 33.5173 428.71 34.8827 428.71 36.632V42.648C428.71 45.4213 429.542 46.808 431.206 46.808ZM462.783 61.848C459.455 61.848 456.831 61.5707 454.911 61.016C453.034 60.504 451.178 59.5013 449.343 58.008L453.183 51.544C455.914 53.1653 458.623 53.976 461.311 53.976C463.06 53.976 464.383 53.4213 465.279 52.312C466.175 51.2027 466.623 49.688 466.623 47.768V45.208C465.727 48.408 463.359 50.008 459.519 50.008C456.319 50.008 453.951 48.92 452.415 46.744C450.922 44.568 450.175 41.6667 450.175 38.04V20.44C450.175 16.3013 450.858 13.144 452.223 10.968C453.631 8.74933 456.063 7.64 459.519 7.64C461.524 7.64 463.103 8.152 464.255 9.176C465.45 10.1573 466.239 11.5653 466.623 13.4V8.152H478.079V47.064C478.079 52.312 476.863 56.088 474.431 58.392C471.999 60.696 468.116 61.848 462.783 61.848ZM463.999 41.56C465.748 41.56 466.623 39.9813 466.623 36.824V20.12C466.623 19.1813 466.367 18.2853 465.855 17.432C465.343 16.5787 464.703 16.152 463.935 16.152C462.954 16.152 462.292 16.5147 461.951 17.24C461.61 17.9227 461.439 18.8827 461.439 20.12V36.824C461.439 38.232 461.61 39.384 461.951 40.28C462.292 41.1333 462.975 41.56 463.999 41.56ZM496.505 55.512C491.684 55.512 488.228 54.1893 486.137 51.544C484.046 48.8987 483.001 44.952 483.001 39.704V20.888C483.001 16.5787 484.238 13.2933 486.713 11.032C489.188 8.77067 492.644 7.64 497.081 7.64C506.084 7.64 510.585 12.056 510.585 20.888V24.28C510.585 27.6933 510.542 30.4667 510.457 32.6H494.201V41.688C494.201 43.3093 494.372 44.5893 494.713 45.528C495.054 46.424 495.78 46.872 496.889 46.872C497.742 46.872 498.34 46.616 498.681 46.104C499.065 45.592 499.278 45.016 499.321 44.376C499.406 43.6933 499.449 42.712 499.449 41.432V36.888H510.585V39.576C510.585 45.0373 509.518 49.0693 507.385 51.672C505.294 54.232 501.668 55.512 496.505 55.512ZM499.449 27.032V21.016C499.449 17.6453 498.617 15.96 496.953 15.96C495.076 15.96 494.137 17.6453 494.137 21.016V27.032H499.449ZM515.595 8.152H526.795V13.336C527.35 11.5013 528.31 10.0933 529.675 9.112C531.083 8.088 532.811 7.576 534.859 7.576V16.92C533.28 16.92 531.531 17.1547 529.611 17.624C527.734 18.0507 526.795 18.5627 526.795 19.16V55H515.595V8.152Z" fill="#0D1A91"/>
</svg>
